<svg xmlns="http://www.w3.org/2000/svg" width="20" height="20" viewBox="0 0 20 20">
  <path id="Path_4251" data-name="Path 4251" d="M-32.385,4.764l-2.392-2.393,0,0a2.462,2.462,0,0,0-3.481,0l-1.777,1.778c-.007.006-.016.008-.022.015s-.009.016-.016.022l-10.767,10.77a.772.772,0,0,0-.223.454l-.592,5.385a.869.869,0,0,0,0,.089.77.77,0,0,0,.774.765l.092-.008,5.384-.592a.772.772,0,0,0,.454-.223L-34.2,10.063c.006-.006.016-.008.022-.015l0,0c.007-.007.009-.016.015-.022l1.773-1.774,0,0A2.462,2.462,0,0,0-32.385,4.764Zm-7.128,5.827-4.9,4.9a.77.77,0,0,1-1.088,0,.77.77,0,0,1,0-1.088l4.9-4.9a.767.767,0,0,1,1.087,0A.768.768,0,0,1-39.513,10.591Zm6.044-3.427-1.25,1.25-3.707-3.708,1.25-1.25,0,0a.923.923,0,0,1,1.305,0l2.4,2.4,0,0A.924.924,0,0,1-33.469,7.164Z" transform="translate(51.663 -1.649)"/>
</svg>
