<svg xmlns="http://www.w3.org/2000/svg" xmlns:xlink="http://www.w3.org/1999/xlink" width="100" height="100" viewBox="0 0 100 100">
  <defs>
    <filter id="Ellipse_121" x="0" y="0" width="100" height="100" filterUnits="userSpaceOnUse">
      <feOffset dy="2" input="SourceAlpha"/>
      <feGaussianBlur stdDeviation="7.5" result="blur"/>
      <feFlood flood-opacity="0.051"/>
      <feComposite operator="in" in2="blur"/>
      <feComposite in="SourceGraphic"/>
    </filter>
  </defs>
  <g id="Group_10826" data-name="Group 10826" transform="translate(-142.5 -263.5)">
    <g transform="matrix(1, 0, 0, 1, 142.5, 263.5)" filter="url(#Ellipse_121)">
      <g id="Ellipse_121-2" data-name="Ellipse 121" transform="translate(22.5 20.5)" fill="#fff" stroke="#eee" stroke-width="1">
        <circle cx="27.5" cy="27.5" r="27.5" stroke="none"/>
        <circle cx="27.5" cy="27.5" r="27" fill="none"/>
      </g>
    </g>
    <path id="Path_4287" data-name="Path 4287" d="M-272.6,237.185a1.547,1.547,0,0,0-1.495-1.527h-2.763l-6.326-7.5a2.3,2.3,0,0,0-2.418-.714l-2.193.714a.529.529,0,0,0-.319.667.556.556,0,0,0,.087.164l6.91,6.772h-10.467a.554.554,0,0,0-.571.539v1.241a1.549,1.549,0,0,0,1.5,1.545h1.612v5.705c0,4.277,2.187,6.774,5.868,6.774a7.719,7.719,0,0,0,3.222-.6v3.81a1.85,1.85,0,0,0,1.794,1.9h1.656a.757.757,0,0,0,.691-.714V238.968h2.639a.553.553,0,0,0,.577-.532.552.552,0,0,0,0-.064Zm-7.376,10.218a5.339,5.339,0,0,1-2.3.474c-1.841,0-2.76-.948-2.76-3.089v-5.7h5.064V247.4Z" transform="translate(475.15 69.658)" fill="#5f259f"/>
  </g>
</svg>
