<svg xmlns="http://www.w3.org/2000/svg" xmlns:xlink="http://www.w3.org/1999/xlink" width="17" height="17" viewBox="0 0 17 17">
  <defs>
    <clipPath id="clip-path">
      <rect id="Rectangle_1823" data-name="Rectangle 1823" width="15" height="17" transform="translate(369 372.5)" fill="#795548"/>
    </clipPath>
  </defs>
  <g id="Group_10793" data-name="Group 10793" transform="translate(-20 -299)">
    <rect id="Rectangle_1817" data-name="Rectangle 1817" width="17" height="17" transform="translate(20 299)" fill="none"/>
    <g id="Group_10797" data-name="Group 10797" transform="translate(-348 -73.5)">
      <g id="Group_10796" data-name="Group 10796" clip-path="url(#clip-path)">
        <g id="Group_10795" data-name="Group 10795">
          <path id="Path_4245" data-name="Path 4245" d="M380.12,372.839v3.551h3.5Zm-1.319,8.968-1.948,2.513a.69.69,0,0,1-.492.279h-.079a.616.616,0,0,1-.452-.179l-1.24-1.077a.734.734,0,0,1-.079-1.018.708.708,0,0,1,1-.079l.689.6,1.495-1.935a.71.71,0,0,1,1-.12.731.731,0,0,1,.1,1.018Zm.748-4.24a.575.575,0,0,1-.571-.579V372.5h-7.871a2.123,2.123,0,0,0-2.1,2.135v12.711a2.122,2.122,0,0,0,2.1,2.134h10.764a2.122,2.122,0,0,0,2.105-2.134v-9.779Zm1.181,4.918c0,3.531-3.9,5.246-4.054,5.326a.7.7,0,0,1-.217.04.822.822,0,0,1-.216-.04c-.158-.08-4.054-1.8-4.054-5.326v-2.913a.539.539,0,0,1,.355-.518l3.738-1.3a.482.482,0,0,1,.335,0l3.739,1.3a.54.54,0,0,1,.354.518v2.913Z" fill="#795548"/>
        </g>
      </g>
    </g>
  </g>
</svg>
