<svg xmlns="http://www.w3.org/2000/svg" xmlns:xlink="http://www.w3.org/1999/xlink" width="405" height="812" viewBox="0 0 405 812">
  <defs>
    <linearGradient id="linear-gradient" x1="0.5" x2="0.5" y2="0.865" gradientUnits="objectBoundingBox">
      <stop offset="0" stop-color="#2ce2b9"/>
      <stop offset="1" stop-color="#22d8af"/>
    </linearGradient>
    <linearGradient id="linear-gradient-2" x1="0.5" y1="0.207" x2="0.5" y2="1" gradientUnits="objectBoundingBox">
      <stop offset="0" stop-color="#2ce2b9" stop-opacity="0"/>
      <stop offset="1" stop-color="#2ce2b9"/>
    </linearGradient>
  </defs>
  <g id="Group_10955" data-name="Group 10955" transform="translate(15)">
    <rect id="Rectangle_198" data-name="Rectangle 198" width="375" height="812" fill="#22d8af"/>
    <circle id="Ellipse_39" data-name="Ellipse 39" cx="202.5" cy="202.5" r="202.5" transform="translate(-15 204)" fill="url(#linear-gradient)"/>
    <circle id="Ellipse_40" data-name="Ellipse 40" cx="152.5" cy="152.5" r="152.5" transform="translate(35 254)" fill="url(#linear-gradient-2)"/>
    <g id="Group_10894" data-name="Group 10894">
      <circle id="Ellipse_41" data-name="Ellipse 41" cx="102.5" cy="102.5" r="102.5" transform="translate(85 304)" fill="#fff"/>
      <g id="Group_190" data-name="Group 190" transform="translate(90.378 337.35)">
        <g id="dream" transform="translate(20 55.378)">
          <path id="Path_428" data-name="Path 428" d="M94.011,400.294H100.4a6.111,6.111,0,0,1,4.679,1.668,6.922,6.922,0,0,1,1.559,4.892v13.422a6.916,6.916,0,0,1-1.559,4.891,6.1,6.1,0,0,1-4.679,1.669H94.011Zm6.314,22.75a2.024,2.024,0,0,0,1.579-.607,2.885,2.885,0,0,0,.551-1.971v-13.8a2.894,2.894,0,0,0-.551-1.972,2.028,2.028,0,0,0-1.579-.606H98.195v18.958Z" transform="translate(-94.011 -400.294)"/>
          <path id="Path_429" data-name="Path 429" d="M105.325,400.294h6.2q3.233,0,4.717,1.5a6.313,6.313,0,0,1,1.484,4.608v1.63q0,4.132-2.74,5.232v.076a3.268,3.268,0,0,1,2.15,1.858,9.345,9.345,0,0,1,.628,3.754v4.664a17.431,17.431,0,0,0,.076,1.839,4.544,4.544,0,0,0,.379,1.384h-4.26a6,6,0,0,1-.3-1.213,17.876,17.876,0,0,1-.076-2.047v-4.853a4.1,4.1,0,0,0-.59-2.54,2.5,2.5,0,0,0-2.035-.721H109.51v11.374h-4.185Zm5.707,11.376a2.518,2.518,0,0,0,1.882-.644,3.038,3.038,0,0,0,.628-2.162v-2.047a3.362,3.362,0,0,0-.513-2.086,1.943,1.943,0,0,0-1.618-.644h-1.9v7.584Z" transform="translate(-89.882 -400.294)"/>
          <path id="Path_430" data-name="Path 430" d="M116.557,400.294H127.97v3.792h-7.229V411.1h5.745v3.792h-5.745v8.152h7.229v3.792H116.557Z" transform="translate(-85.782 -400.294)"/>
          <path id="Path_431" data-name="Path 431" d="M130.2,400.294h5.669l4.337,26.542h-4.185l-.76-5.27v.075h-4.756l-.76,5.2h-3.881Zm4.566,17.745L132.9,404.92h-.076L131,418.039Z" transform="translate(-82.385 -400.294)"/>
          <path id="Path_432" data-name="Path 432" d="M137.848,400.294h5.973l2.663,19h.076l2.663-19H155.2v26.542h-3.957v-20.1h-.075l-3.044,20.1h-3.5l-3.043-20.1H141.5v20.1h-3.653Z" transform="translate(-78.011 -400.294)"/>
        </g>
        <g id="Stock" transform="translate(102.116 55)">
          <path id="Path_433" data-name="Path 433" d="M155.73,425.59a7.125,7.125,0,0,1-1.56-4.948v-1.515h3.957v1.82q0,2.578,2.168,2.578a2.038,2.038,0,0,0,1.616-.627,3.025,3.025,0,0,0,.553-2.027,5.6,5.6,0,0,0-.762-2.939,14.053,14.053,0,0,0-2.815-3.054,16.769,16.769,0,0,1-3.613-4.113,8.363,8.363,0,0,1-1.028-4.152,6.9,6.9,0,0,1,1.6-4.873,6.013,6.013,0,0,1,4.64-1.724,5.782,5.782,0,0,1,4.547,1.724,7.19,7.19,0,0,1,1.541,4.948v1.1h-3.956v-1.365a3.045,3.045,0,0,0-.534-1.992,1.937,1.937,0,0,0-1.56-.625q-2.09,0-2.093,2.54a5,5,0,0,0,.781,2.693,14.915,14.915,0,0,0,2.834,3.033,15.656,15.656,0,0,1,3.615,4.133,9.146,9.146,0,0,1,.988,4.36,7.1,7.1,0,0,1-1.616,5.005,6.092,6.092,0,0,1-4.7,1.744A5.885,5.885,0,0,1,155.73,425.59Z" transform="translate(-154.17 -400.017)" fill="#22d8af"/>
          <path id="Path_434" data-name="Path 434" d="M168.634,404.086h-4.375v-3.792h12.933v3.792h-4.373v22.75h-4.185Z" transform="translate(-150.488 -399.916)" fill="#22d8af"/>
          <path id="Path_435" data-name="Path 435" d="M176.514,425.572a6.93,6.93,0,0,1-1.637-4.93V406.689a6.932,6.932,0,0,1,1.637-4.929,7.253,7.253,0,0,1,9.433,0,6.931,6.931,0,0,1,1.635,4.929v13.953a6.93,6.93,0,0,1-1.635,4.93,7.249,7.249,0,0,1-9.433,0Zm6.885-4.663V406.424q0-2.617-2.169-2.617t-2.168,2.617V420.91q0,2.615,2.168,2.615T183.4,420.91Z" transform="translate(-146.612 -400.017)" fill="#22d8af"/>
          <path id="Path_436" data-name="Path 436" d="M187.631,425.611a6.83,6.83,0,0,1-1.579-4.816V406.538a6.832,6.832,0,0,1,1.579-4.816,7.016,7.016,0,0,1,9.169,0,6.838,6.838,0,0,1,1.579,4.816v2.806h-3.957v-3.071q0-2.465-2.093-2.465t-2.091,2.465V421.1q0,2.426,2.091,2.427t2.093-2.427v-4.057h3.957v3.754a6.836,6.836,0,0,1-1.579,4.816,7.012,7.012,0,0,1-9.169,0Z" transform="translate(-142.533 -400.017)" fill="#22d8af"/>
          <path id="Path_437" data-name="Path 437" d="M196.923,400.294h4.184V411.48l5.326-11.186h4.184l-4.984,9.745,5.06,16.8h-4.375l-3.538-11.83-1.673,3.374v8.456h-4.184Z" transform="translate(-138.566 -399.916)" fill="#22d8af"/>
        </g>
      </g>
    </g>
  </g>
</svg>
